A version of the German legend in which a man who sells his soul to the devil in exchange for knowledge.   


 General
      Complete name : Faust 2011 720p BluRay x264 DTS-EA.mkv
      Format : Matroska
      File size : 5.96 GiB
      Duration : 2h 19mn
      Overall bit rate : 6 115 Kbps
      Movie name : Aleksandr Sokurov-Faust (2011)
      Encoded date : UTC 2012-03-31 10:08:45
      Writing application : mkvmerge v5.4.0 ('Piper') built on Mar 10 2012 13:34:39
      Writing library : libebml v1.2.3 + libmatroska v1.3.0
   Video #1
      ID : 1
      Format : AVC
      Format/Info : Advanced Video Codec
      Format profile : High@L4.1
      Format settings, CABAC : Yes
      Format settings, ReFrames : 12 frames
      Muxing mode : Container profile=Unknown@4.1
      Codec ID : V_MPEG4/ISO/AVC
      Duration : 2h 19mn
      Bit rate : 4 484 Kbps
      Nominal bit rate : 4 600 Kbps
      Width : 944 pixels
      Height : 720 pixels
      Display aspect ratio : 4:3
      Frame rate : 23.976 fps
      Resolution : 24 bits
      Colorimetry : 4:2:0
      Scan type : Progressive
      Bits/(Pixel*Frame) : 0.275
      Stream size : 4.37 GiB (73%)
   Audio #2
      ID : 2
      Format : DTS
      Format/Info : Digital Theater Systems
      Codec ID : A_DTS
      Duration : 2h 19mn
      Bit rate mode : Constant
      Bit rate : 1 510 Kbps
      Channel(s) : 6 channels
      Channel positions : Front: L C R, Surround: L R, LFE
      Sampling rate : 48.0 KHz
      Resolution : 24 bits
      Stream size : 1.47 GiB (25%)
      Language : German
   Text #3
      ID : 3
      Format : UTF-8
      Codec ID : S_TEXT/UTF8
      Codec ID/Info : UTF-8 Plain Text
      Language: English
   Text #4
      ID : 4
      Format : VobSub
      Codec ID : S_VOBSUB
      Codec ID/Info : The same subtitle format used on DVDs
      Language : Italian
   Text #5
      ID : 5
      Format : VobSub
      Codec ID : S_VOBSUB
      Codec ID/Info : The same subtitle format used on DVDs
      Language : Italian
 
http://www.imdb.com/title/tt1437357/

Audio: German
Subtitles: English and Italian (in mkv)